<svg height="16" viewBox="0 0 4.2333332 4.2333335" width="16" xmlns="http://www.w3.org/2000/svg"><g transform="scale(.26458333)"><path d="m1 0c-.5539736 0-1 .4460264-1 1v10c0 .553974.4460264 1 1 1h2.5a2.4999999 2.4999999 0 0 1 2.4453125 2h.0546875.0410156.9589844.0546875a2.4999999 2.4999999 0 0 1 2.1816406-1.982422l.7636719-1.017578h-.5a3.4999999 3.4999999 0 0 0 -2.5 1.060547v-1.060547-7.5a2.4999999 2.4999999 0 0 1 2.5-2.5h2.5v7h1v-7c0-.55396534-.446026-1-1-1h-2.5a3.4999999 3.4999999 0 0 0 -3 1.7050781 3.5 3.5 0 0 0 -3-1.7050781zm0 1h2.5a2.4999999 2.4999999 0 0 1 2.5 2.5v7.5 1.060547a3.4999999 3.4999999 0 0 0 -2.5-1.060547h-2.5z" fill="#fafafa"/><path d="m9 9v1h3l-3 4v2h5v-1h-3l3-4v-2z" fill="#991c00"/></g></svg>