<svg height="16" viewBox="0 0 4.2333332 4.2333335" width="16" xmlns="http://www.w3.org/2000/svg"><g transform="scale(.26458333)"><path d="m5.5000001 0c-2.8420663.00236111-5.21428774 2.1697012-5.47265635 5.0000001h1.00390625c.2544989-2.276314 2.1782543-3.9982768 4.4687501-4.0000001 1.5227237.0034592 2.9109157.7734428 3.7304688 2h-1.7304688c-.2769991 0-.5.2230368-.5.5 0 .2769634.2230009.5000001.5.5000001h2.9999999c.277 0 .5-.2230367.5-.5000001v-2.99999999c0-.27696324-.223-.50000001-.5-.50000001-.008656 0-.016846-.00041575-.02539 0-.264914.01334171-.47461.23169187-.47461.50000001v1.84960939c-1.0272271-1.47000671-2.7066486-2.3468919-4.4999999-2.3496094zm4.46875 6.0000001c-.2545052 2.2763293-2.1782585 3.9982993-4.46875 3.9999999-1.5230257-.0030234-2.9129323-.7729031-3.732422-1.9999999h1.7324219c.2769995 0 .5000001-.2229987.5000001-.5 0-.2770391-.2230009-.5-.5000001-.5h-2.99999999c-.00865511 0-.01684535-.0004158-.02539063 0-.2649137.0133417-.47460938.231616-.47460938.5v2.9999999c0 .277039.22300067.5.50000001.5.27699903 0 .49999999-.222999.49999999-.5v-1.8496093c1.0272256 1.4700073 2.7066471 2.3468883 4.5000001 2.3496093 2.8420705-.002343 5.2142939-2.1696686 5.4726559-4.9999999z" fill="#18ab50"/><path d="m9 9v1h3l-3 4v2h5v-1h-3l3-4v-2z" fill="#991c00"/></g></svg>