<svg height="16" viewBox="0 0 4.2333332 4.2333335" width="16" xmlns="http://www.w3.org/2000/svg"><g transform="translate(0 -292.76665)"><path d="m9 9v1h3l-3 4v2h5v-1h-3l3-4v-2z" fill="#991c00" transform="matrix(.26458333 0 0 .26458333 0 292.76665)"/><g stroke-width=".264583"><path d="m.66145833 293.82498c-.36644754-.00002-.66145833.295-.66145833.66146v.26459c0 .36644.29501079.66145.66145833.66145h.26458334c.32116693.00001.58711633-.22646.64802243-.52916h-.2754354c-.0545059.15397-.1994862.26459-.37258703.26458h-.26458334c-.21986852 0-.396875-.17701-.396875-.39687v-.26459c0-.21988.17700648-.39687.396875-.39687h.26458334c.17310083.00001.31808143.11061.37258703.26458h.2754354c-.0609059-.3027-.3268555-.52915-.64802243-.52917zm1.83864747 0c-.3211668-.00001-.5871163.22646-.6480225.52917h.2754354c.054506-.15398.1994863-.26458.3725871-.26458h.2780192c.2198685.00001.396875.177.396875.39687v.26459c0 .04637-.0077282.09098-.0222209.13229h.2738851c.0085774-.04266.0129191-.08704.0129191-.13229v-.26459c0-.36645-.2950108-.66144-.6614583-.66146zm-.6480225 1.05834c.0337349.16766.1304978.31185.2645834.40721v-.14263a.26460976.26460976 0 0 1 .0620117-.1664c-.0212695-.02994-.0386576-.06287-.0511597-.09818z" fill="#fafafa"/><path d="m1.7130737 292.76665c-.0700918.00353-.1255737.06128-.1255737.13229v.52917c0 .07328.0590017.13229.1322917.13229.0732894 0 .1322916-.05899.1322916-.13229v-.52917c0-.07328-.0590018-.13229-.1322916-.13229-.0022903 0-.0044569-.00011-.006718 0zm-.93172604.108c-.01796469.00055-.03589231.0057-.05374349.01602-.06347958.0367-.09874565.12741-.04857585.18087l.39687498.42271c.050163.0535.1173967.08476.1808675.04806.06348-.0367.0982291-.12689.0480591-.18035l-.39687498-.42271c-.03605431-.03845-.08069755-.066-.12660726-.0646zm1.87068684 0c-.0438067.001-.0859191.02782-.1204061.0646l-.396875.42271c-.0501688.05346-.0154207.14375.0480591.18035.0634708.0367.1307047.00544.1808675-.04806l.396875-.42271c.050169-.05345.014904-.14417-.0485758-.18087-.0198347-.01147-.0400326-.01647-.0599447-.01602zm-.9389608 2.80242c-.0700921.00353-.1255737.0613-.1255737.13229v.52917c0 .07328.059002.13229.1322917.13229.0732898 0 .1322916-.05903.1322916-.13229v-.52917c0-.0733-.0590022-.13229-.1322916-.13229-.0022903 0-.0044569-.00012-.006718 0zm-.5162475.00206c-.0438067.001-.0864359.0273-.1209229.06408l-.39687498.42272c-.0501698.05346-.01490373.14416.04857585.18086.06347086.0367.13018825.00493.18035075-.04857l.39687498-.42272c.05017-.05346.0154209-.14365-.0480591-.18035-.0198345-.01147-.0400325-.01647-.0599446-.01602zm1.0402466 0c-.0179647.00055-.0364091.0057-.0542603.01602-.0634798.0366-.0982279.12689-.0480591.18035l.2015381.21446.1565796-.20929-.1291911-.13746c-.0360546-.03845-.0806977-.06548-.1266072-.06408z" fill="#f8db8f"/></g></g></svg>