<svg height="24" viewBox="0 0 6.3499998 6.3500002" width="24" xmlns="http://www.w3.org/2000/svg"><g transform="translate(0 -292.76665)"><g stroke-width=".264583"><path d="m.79375 293.29582c-.14657901 0-.26458333.118-.26458333.26458v3.70417c0 .14658.11800432.26458.26458333.26458h2.8003459l.2645833-.26458h-3.0649292v-2.91042h3.7041667v1.05782h.2645833v-1.85157c0-.14658-.1180043-.26458-.2645833-.26458zm3.7041667 3.17706v.15245l.1524454-.15245z" fill="#fafafa"/><path d="m1.4552083 295.1479h2.3812501c.07329 0 .1322916.059.1322916.13229 0 .0733-.059002.1323-.1322916.1323h-2.3812501c-.07329 0-.1322916-.059-.1322916-.1323s.059002-.13229.1322916-.13229z" fill="#fafafa"/><path d="m3.0427083 294.88331c-.219188 0-.396875.17769-.396875.39688s.177687.39687.396875.39687c.2191879 0 .396875-.17768.396875-.39687s-.1776871-.39688-.396875-.39688z" fill="#1e8bcd"/><path d="m1.4552083 296.20623.5315451.00001c.07329 0 .1322917.059.1322917.13229 0 .0733-.059002.1323-.1322917.1323l-.5315451-.00001c-.07329 0-.1322916-.059-.1322916-.1323s.059002-.13229.1322916-.13229z" fill="#fafafa"/><path d="m2.5068237 296.20623c-.068832.00347-.1229899.05996-.1229899.12971v.00517c0 .07192.0577359.12971.1297079.12971h1.1684041a.26527757.26527757 0 0 1 -.2423625-.26355v-.00104h-.9260416c-.0022492 0-.0044976-.00011-.006718 0z" fill="#fafafa"/><path d="m2.2489583 295.94165a.396875.396875 0 0 0 -.396875.39687.396875.396875 0 0 0 .396875.39688.396875.396875 0 0 0 .396875-.39688.396875.396875 0 0 0 -.396875-.39687zm0 .26458a.13229166.13229166 0 0 1 .1322916.13229.13229166.13229166 0 0 1 -.1322916.13229.13229166.13229166 0 0 1 -.1322917-.13229.13229166.13229166 0 0 1 .1322917-.13229z" fill="#1e8bcd"/><path d="m.79374999 293.5604h3.70416661v.52917h-3.70416661z" fill="#c8c6c4" fill-opacity=".992647"/></g><path d="m3.7041667 295.67707v.52917l1.5875-.00001-1.5875 1.5875v1.05834h2.38125v-.52917h-1.5875l1.5875-1.5875v-1.05833z" fill="#991c00"/></g></svg>