<svg height="16" viewBox="0 0 4.2333332 4.2333335" width="16" xmlns="http://www.w3.org/2000/svg"><g transform="translate(0 -292.76665)"><path d="m1 1v12h7.5000001l1.4999999-2h-.9999999a1.0000999 1.0000999 0 0 1 -1-1v-.9999999a1.0000999 1.0000999 0 0 1 1-1h.9999999v-4h-2.4999999c-.2770001.0003024-.5-.2229609-.5-.5000001v-2.5zm7.0000001 0v2h1.9999999z" fill="#fafafa" transform="matrix(.26458333 0 0 .26458333 0 292.76665)"/><path d="m1 0c-.55399996 0-1 .44599686-1 1v12c0 .554003.44600026 1 1 1h7a1.0000999 1.0000999 0 0 1 .1992188-.599609l.3007812-.400391h-7.5v-12h6v2.5c0 .2770394.2229996.5003024.5.5h2.5v4h1v-4.5-.8632812l-2.6367188-2.6367188h-.8632812zm7 1 2 2h-2z" fill="#3a3a38" transform="matrix(.26458333 0 0 .26458333 0 292.76665)"/><path d="m1.8520833 294.07975v.2744a.396875.396875 0 0 1 .2645834.37362.396875.396875 0 0 1 -.2645834.37362v.27337a.6614583.6614583 0 0 0 .2645834-.11937v-.10749a.26460976.26460976 0 0 1 .2444295-.26355.6614583.6614583 0 0 0 .0201538-.15658.6614583.6614583 0 0 0 -.5291667-.64802zm-.79375.02325a.6614583.6614583 0 0 0 -.52916663.64803.6614583.6614583 0 0 0 .52916663.64698v-.27336a.396875.396875 0 0 1 -.2645833-.37362.396875.396875 0 0 1 .2645833-.37363zm0 .51573v.26459h.79375v-.26459z" fill="#1e8bcd" fill-opacity=".878431"/><path d="m9 9v1h3l-3 4v2h5v-1h-3l3-4v-2z" fill="#991c00" transform="matrix(.26458333 0 0 .26458333 0 292.76665)"/></g></svg>