<svg height="16" viewBox="0 0 4.2333332 4.2333335" width="16" xmlns="http://www.w3.org/2000/svg"><g transform="scale(.26458333)"><path d="m1 1v12h7.5000001l1.4999999-2h-.9999999a1.0000999 1.0000999 0 0 1 -1-1v-.9999999a1.0000999 1.0000999 0 0 1 1-1h.9999999v-4h-2.4999999c-.2770001.0003024-.5-.2229609-.5-.5000001v-2.5zm7.0000001 0v2h1.9999999z" fill="#fafafa"/><path d="m1 0c-.55399996 0-1 .44599686-1 1v12c0 .554003.44600026 1 1 1h7a1.0000999 1.0000999 0 0 1 .1992188-.599609l.3007812-.400391h-7.5v-12h6v2.5c0 .2770394.2229996.5003024.5.5h2.5v4h1v-4.5-.8632812l-2.6367188-2.6367188h-.8632812zm7 1 2 2h-2z" fill="#3a3a38"/><path d="m9 9v1h3l-3 4v2h5v-1h-3l3-4v-2z" fill="#991c00"/><path d="m2 4v7h1 5v-5.5l-1.5-1.5zm1 1h3l1 1v4h-4zm1 1v1h2v-1zm0 2v1h2v-1z" fill="#fb983b"/></g></svg>