<svg height="16" viewBox="0 0 4.2333332 4.2333335" width="16" xmlns="http://www.w3.org/2000/svg"><g transform="translate(0 -292.76665)"><g stroke-width=".264583"><path d="m.26458333 293.82498v2.38125h1.98437497l.396875-.52916h-.2645833a.26460976.26460976 0 0 1 -.2645833-.26459v-.26458a.26460976.26460976 0 0 1 .2645833-.26458h1.0583333v-1.05834z" fill="#fafafa"/><path d="m.26458333 292.76665c-.14657901 0-.26458333.118-.26458333.26458v3.175c0 .14658.11800432.26459.26458333.26459h1.85208337c-.0000361-.0572.018457-.11285.05271-.15865l.079582-.10594h-1.98437537v-2.38125h3.17499997v1.05834h.2645834v-1.85209c0-.14658-.1180044-.26458-.2645834-.26458z" fill="#3a3a38"/><path d="m.64712061 294.35416h2.40992529c.065346 0 .117954.0526.117954.11795v.0287c0 .0653-.052608.11795-.117954.11795h-2.40992529c-.0653465 0-.11795397-.0526-.11795397-.11795v-.0287c0-.0653.0526075-.11795.11795397-.11795z" fill="#3a3a38"/><path d="m1.190625 294.08957c-.2191879 0-.396875.17769-.396875.39687 0 .21919.1776871.39688.396875.39688.219188 0 .396875-.17769.396875-.39688 0-.21918-.177687-.39687-.396875-.39687z" fill="#1e8bcd"/></g><g fill="#3a3a38" transform="matrix(.26458333 0 0 .26458333 -1.058333 291.44373)"><path d="m6.5 15h3c.277 0 .5.223.5.5s-.223.5-.5.5h-3c-.277 0-.5-.223-.5-.5s.223-.5.5-.5z"/><path d="m11.490234 15.000013c-.272019 0-.490234.218214-.490234.490234v.019531c0 .27202.218215.490235.490234.490235h1.509766a1.0000999 1.0000999 0 0 1 -1-1z"/><path d="m10.5 14a1.5 1.5 0 0 0 -1.5 1.5 1.5 1.5 0 0 0 1.5 1.5 1.5 1.5 0 0 0 1.5-1.5 1.5 1.5 0 0 0 -1.5-1.5zm0 1a.5.5 0 0 1 .5.5.5.5 0 0 1 -.5.5.5.5 0 0 1 -.5-.5.5.5 0 0 1 .5-.5z" fill="#1e8bcd"/></g><path d="m.26458333 293.03123h3.17499997v.52917h-3.17499997z" fill="#797774" fill-opacity=".992647" stroke-width=".264583"/><path d="m9 9v1h3l-3 4v2h5v-1h-3l3-4v-2z" fill="#991c00" transform="matrix(.26458333 0 0 .26458333 0 292.76665)"/></g></svg>